<svg xmlns="http://www.w3.org/2000/svg" viewBox="0 0 2200 1900" width="2200" height="1900" role="img" aria-labelledby="title desc">
<title id="title">Software resource structure</title>
<desc id="desc">Complete scoped software component inventory grouped by architectural responsibility.</desc>
<defs>
<marker id="arrow" viewBox="0 0 10 10" refX="9" refY="5" markerWidth="7" markerHeight="7" orient="auto-start-reverse"><path d="M 0 0 L 10 5 L 0 10 z" fill="#21465b"/></marker>
<marker id="arrow-muted" viewBox="0 0 10 10" refX="9" refY="5" markerWidth="7" markerHeight="7" orient="auto-start-reverse"><path d="M 0 0 L 10 5 L 0 10 z" fill="#687983"/></marker>
<filter id="shadow" x="-10%" y="-10%" width="120%" height="130%"><feDropShadow dx="0" dy="2" stdDeviation="3" flood-color="#0b2534" flood-opacity="0.12"/></filter>
</defs>
<style>
.title{font:700 30px Arial,Helvetica,sans-serif;fill:#102f40}.subtitle{font:400 15px Arial,Helvetica,sans-serif;fill:#4d626d}.label{font:700 14px Arial,Helvetica,sans-serif;fill:#102f40;letter-spacing:.04em}.node-title{font:700 17px Arial,Helvetica,sans-serif;fill:#102f40}.node-id{font:700 12px Arial,Helvetica,sans-serif;fill:#176b68;letter-spacing:.04em}.body{font:400 14px Arial,Helvetica,sans-serif;fill:#2d4653}.small{font:400 12px Arial,Helvetica,sans-serif;fill:#526a76}.tiny{font:400 10px Arial,Helvetica,sans-serif;fill:#526a76}.inverse{fill:#ffffff}.edge{stroke:#21465b;stroke-width:2.2;fill:none;marker-end:url(#arrow)}.edge-muted{stroke:#687983;stroke-width:1.6;fill:none;marker-end:url(#arrow-muted)}.edge-dash{stroke:#687983;stroke-width:1.5;stroke-dasharray:7 6;fill:none;marker-end:url(#arrow-muted)}
</style>
<rect x="0" y="0" width="2200" height="1900" rx="0" fill="#f5f2eb" stroke="none" stroke-width="1" opacity="1"/>
<rect x="0" y="0" width="2200" height="82" rx="0" fill="#102f40" stroke="none" stroke-width="1" opacity="1"/>
<text x="36" y="43" class="title inverse" text-anchor="start">Software resource structure</text>
<text x="2164" y="32" class="label inverse" text-anchor="end">VV-VIEW-05</text>
<text x="2164" y="57" class="small inverse" text-anchor="end">UAF 1.3 / SysML 1.6 | v0.1.0</text>
<rect x="30" y="110" width="2140" height="168" rx="12" fill="#d9ebe7" stroke="#b9c8ce" stroke-width="1.2" opacity="1"/>
<text x="48" y="136" class="label" text-anchor="start">User and control surfaces</text>
<text x="2152" y="136" class="small" text-anchor="end">3 components</text>
<rect x="50.0" y="158" width="511.5" height="76" rx="7" fill="#ffffff" stroke="#b8c7cd" stroke-width="1" opacity="1"/>
<rect x="50.0" y="158" width="6" height="76" rx="6" fill="#2c8580" stroke="none" stroke-width="1" opacity="1"/>
<text x="66.0" y="179" class="node-id" text-anchor="start">VV-CMP-001</text>
<text x="66.0" y="204" class="body" text-anchor="start">
<tspan x="66.0" dy="0">MCP gateway</tspan>
</text>
<text x="549.5" y="179" class="tiny" text-anchor="end">Rust</text>
<rect x="579.5" y="158" width="511.5" height="76" rx="7" fill="#ffffff" stroke="#b8c7cd" stroke-width="1" opacity="1"/>
<rect x="579.5" y="158" width="6" height="76" rx="6" fill="#2c8580" stroke="none" stroke-width="1" opacity="1"/>
<text x="595.5" y="179" class="node-id" text-anchor="start">VV-CMP-002</text>
<text x="595.5" y="204" class="body" text-anchor="start">
<tspan x="595.5" dy="0">Console BFF</tspan>
</text>
<text x="1079.0" y="179" class="tiny" text-anchor="end">Rust</text>
<rect x="1109.0" y="158" width="511.5" height="76" rx="7" fill="#ffffff" stroke="#b8c7cd" stroke-width="1" opacity="1"/>
<rect x="1109.0" y="158" width="6" height="76" rx="6" fill="#2c8580" stroke="none" stroke-width="1" opacity="1"/>
<text x="1125.0" y="179" class="node-id" text-anchor="start">VV-CMP-003</text>
<text x="1125.0" y="204" class="body" text-anchor="start">
<tspan x="1125.0" dy="0">Operations console web application</tspan>
</text>
<text x="1608.5" y="179" class="tiny" text-anchor="end">React and TypeScript</text>
<rect x="30" y="296" width="2140" height="352" rx="12" fill="#deebf2" stroke="#b9c8ce" stroke-width="1.2" opacity="1"/>
<text x="48" y="322" class="label" text-anchor="start">Core platform libraries and services</text>
<text x="2152" y="322" class="small" text-anchor="end">15 components</text>
<rect x="50.0" y="344" width="405.6" height="76" rx="7" fill="#ffffff" stroke="#b8c7cd" stroke-width="1" opacity="1"/>
<rect x="50.0" y="344" width="6" height="76" rx="6" fill="#2c8580" stroke="none" stroke-width="1" opacity="1"/>
<text x="66.0" y="365" class="node-id" text-anchor="start">VV-CMP-004</text>
<text x="66.0" y="390" class="body" text-anchor="start">
<tspan x="66.0" dy="0">Artifact service</tspan>
</text>
<text x="443.6" y="365" class="tiny" text-anchor="end">Rust</text>
<rect x="473.6" y="344" width="405.6" height="76" rx="7" fill="#ffffff" stroke="#b8c7cd" stroke-width="1" opacity="1"/>
<rect x="473.6" y="344" width="6" height="76" rx="6" fill="#2c8580" stroke="none" stroke-width="1" opacity="1"/>
<text x="489.6" y="365" class="node-id" text-anchor="start">VV-CMP-005</text>
<text x="489.6" y="390" class="body" text-anchor="start">
<tspan x="489.6" dy="0">Recording Hub</tspan>
</text>
<text x="867.2" y="365" class="tiny" text-anchor="end">Rust</text>
<rect x="897.2" y="344" width="405.6" height="76" rx="7" fill="#ffffff" stroke="#b8c7cd" stroke-width="1" opacity="1"/>
<rect x="897.2" y="344" width="6" height="76" rx="6" fill="#2c8580" stroke="none" stroke-width="1" opacity="1"/>
<text x="913.2" y="365" class="node-id" text-anchor="start">VV-CMP-006</text>
<text x="913.2" y="390" class="body" text-anchor="start">
<tspan x="913.2" dy="0">Agent kernel</tspan>
</text>
<text x="1290.8000000000002" y="365" class="tiny" text-anchor="end">Rust</text>
<rect x="1320.8000000000002" y="344" width="405.6" height="76" rx="7" fill="#ffffff" stroke="#b8c7cd" stroke-width="1" opacity="1"/>
<rect x="1320.8000000000002" y="344" width="6" height="76" rx="6" fill="#2c8580" stroke="none" stroke-width="1" opacity="1"/>
<text x="1336.8000000000002" y="365" class="node-id" text-anchor="start">VV-CMP-007</text>
<text x="1336.8000000000002" y="390" class="body" text-anchor="start">
<tspan x="1336.8000000000002" dy="0">Agent runtime</tspan>
</text>
<text x="1714.4" y="365" class="tiny" text-anchor="end">Rust</text>
<rect x="1744.4" y="344" width="405.6" height="76" rx="7" fill="#ffffff" stroke="#b8c7cd" stroke-width="1" opacity="1"/>
<rect x="1744.4" y="344" width="6" height="76" rx="6" fill="#2c8580" stroke="none" stroke-width="1" opacity="1"/>
<text x="1760.4" y="365" class="node-id" text-anchor="start">VV-CMP-008</text>
<text x="1760.4" y="390" class="body" text-anchor="start">
<tspan x="1760.4" dy="0">Platform store</tspan>
</text>
<text x="2138.0" y="365" class="tiny" text-anchor="end">Rust</text>
<rect x="50.0" y="436" width="405.6" height="76" rx="7" fill="#ffffff" stroke="#b8c7cd" stroke-width="1" opacity="1"/>
<rect x="50.0" y="436" width="6" height="76" rx="6" fill="#2c8580" stroke="none" stroke-width="1" opacity="1"/>
<text x="66.0" y="457" class="node-id" text-anchor="start">VV-CMP-009</text>
<text x="66.0" y="482" class="body" text-anchor="start">
<tspan x="66.0" dy="0">Durable task runtime</tspan>
</text>
<text x="443.6" y="457" class="tiny" text-anchor="end">Rust</text>
<rect x="473.6" y="436" width="405.6" height="76" rx="7" fill="#ffffff" stroke="#b8c7cd" stroke-width="1" opacity="1"/>
<rect x="473.6" y="436" width="6" height="76" rx="6" fill="#2c8580" stroke="none" stroke-width="1" opacity="1"/>
<text x="489.6" y="457" class="node-id" text-anchor="start">VV-CMP-010</text>
<text x="489.6" y="482" class="body" text-anchor="start">
<tspan x="489.6" dy="0">DuckDB runtime</tspan>
</text>
<text x="867.2" y="457" class="tiny" text-anchor="end">Rust</text>
<rect x="897.2" y="436" width="405.6" height="76" rx="7" fill="#ffffff" stroke="#b8c7cd" stroke-width="1" opacity="1"/>
<rect x="897.2" y="436" width="6" height="76" rx="6" fill="#2c8580" stroke="none" stroke-width="1" opacity="1"/>
<text x="913.2" y="457" class="node-id" text-anchor="start">VV-CMP-011</text>
<text x="913.2" y="482" class="body" text-anchor="start">
<tspan x="913.2" dy="0">Shared MCP contract</tspan>
</text>
<text x="1290.8000000000002" y="457" class="tiny" text-anchor="end">Rust</text>
<rect x="1320.8000000000002" y="436" width="405.6" height="76" rx="7" fill="#ffffff" stroke="#b8c7cd" stroke-width="1" opacity="1"/>
<rect x="1320.8000000000002" y="436" width="6" height="76" rx="6" fill="#2c8580" stroke="none" stroke-width="1" opacity="1"/>
<text x="1336.8000000000002" y="457" class="node-id" text-anchor="start">VV-CMP-012</text>
<text x="1336.8000000000002" y="482" class="body" text-anchor="start">
<tspan x="1336.8000000000002" dy="0">Final MCP task extension</tspan>
</text>
<text x="1714.4" y="457" class="tiny" text-anchor="end">Rust</text>
<rect x="1744.4" y="436" width="405.6" height="76" rx="7" fill="#ffffff" stroke="#b8c7cd" stroke-width="1" opacity="1"/>
<rect x="1744.4" y="436" width="6" height="76" rx="6" fill="#2c8580" stroke="none" stroke-width="1" opacity="1"/>
<text x="1760.4" y="457" class="node-id" text-anchor="start">VV-CMP-013</text>
<text x="1760.4" y="482" class="body" text-anchor="start">
<tspan x="1760.4" dy="0">MCP stdio bridge</tspan>
</text>
<text x="2138.0" y="457" class="tiny" text-anchor="end">Rust</text>
<rect x="50.0" y="528" width="405.6" height="76" rx="7" fill="#ffffff" stroke="#b8c7cd" stroke-width="1" opacity="1"/>
<rect x="50.0" y="528" width="6" height="76" rx="6" fill="#2c8580" stroke="none" stroke-width="1" opacity="1"/>
<text x="66.0" y="549" class="node-id" text-anchor="start">VV-CMP-014</text>
<text x="66.0" y="574" class="body" text-anchor="start">
<tspan x="66.0" dy="0">Artifact client</tspan>
</text>
<text x="443.6" y="549" class="tiny" text-anchor="end">Rust</text>
<rect x="473.6" y="528" width="405.6" height="76" rx="7" fill="#ffffff" stroke="#b8c7cd" stroke-width="1" opacity="1"/>
<rect x="473.6" y="528" width="6" height="76" rx="6" fill="#2c8580" stroke="none" stroke-width="1" opacity="1"/>
<text x="489.6" y="549" class="node-id" text-anchor="start">VV-CMP-015</text>
<text x="489.6" y="574" class="body" text-anchor="start">
<tspan x="489.6" dy="0">RRD library</tspan>
</text>
<text x="867.2" y="549" class="tiny" text-anchor="end">Rust</text>
<rect x="897.2" y="528" width="405.6" height="76" rx="7" fill="#ffffff" stroke="#b8c7cd" stroke-width="1" opacity="1"/>
<rect x="897.2" y="528" width="6" height="76" rx="6" fill="#2c8580" stroke="none" stroke-width="1" opacity="1"/>
<text x="913.2" y="549" class="node-id" text-anchor="start">VV-CMP-051</text>
<text x="913.2" y="574" class="body" text-anchor="start">
<tspan x="913.2" dy="0">Recording forwarder</tspan>
</text>
<text x="1290.8000000000002" y="549" class="tiny" text-anchor="end">Rust</text>
<rect x="1320.8000000000002" y="528" width="405.6" height="76" rx="7" fill="#ffffff" stroke="#b8c7cd" stroke-width="1" opacity="1"/>
<rect x="1320.8000000000002" y="528" width="6" height="76" rx="6" fill="#2c8580" stroke="none" stroke-width="1" opacity="1"/>
<text x="1336.8000000000002" y="549" class="node-id" text-anchor="start">VV-CMP-052</text>
<text x="1336.8000000000002" y="574" class="body" text-anchor="start">
<tspan x="1336.8000000000002" dy="0">MCP Apps extension</tspan>
</text>
<text x="1714.4" y="549" class="tiny" text-anchor="end">Rust</text>
<rect x="1744.4" y="528" width="405.6" height="76" rx="7" fill="#ffffff" stroke="#b8c7cd" stroke-width="1" opacity="1"/>
<rect x="1744.4" y="528" width="6" height="76" rx="6" fill="#2c8580" stroke="none" stroke-width="1" opacity="1"/>
<text x="1760.4" y="549" class="node-id" text-anchor="start">VV-CMP-053</text>
<text x="1760.4" y="574" class="body" text-anchor="start">
<tspan x="1760.4" dy="0">Recording ingest protocol</tspan>
</text>
<text x="2138.0" y="549" class="tiny" text-anchor="end">Rust</text>
<rect x="30" y="666" width="2140" height="444" rx="12" fill="#eee5d8" stroke="#b9c8ce" stroke-width="1.2" opacity="1"/>
<text x="48" y="692" class="label" text-anchor="start">Hosted MCP domains</text>
<text x="2152" y="692" class="small" text-anchor="end">15 components</text>
<rect x="50.0" y="714" width="511.5" height="76" rx="7" fill="#ffffff" stroke="#b8c7cd" stroke-width="1" opacity="1"/>
<rect x="50.0" y="714" width="6" height="76" rx="6" fill="#2c8580" stroke="none" stroke-width="1" opacity="1"/>
<text x="66.0" y="735" class="node-id" text-anchor="start">VV-CMP-016</text>
<text x="66.0" y="760" class="body" text-anchor="start">
<tspan x="66.0" dy="0">Artifact MCP server</tspan>
</text>
<text x="549.5" y="735" class="tiny" text-anchor="end">Rust</text>
<rect x="579.5" y="714" width="511.5" height="76" rx="7" fill="#ffffff" stroke="#b8c7cd" stroke-width="1" opacity="1"/>
<rect x="579.5" y="714" width="6" height="76" rx="6" fill="#2c8580" stroke="none" stroke-width="1" opacity="1"/>
<text x="595.5" y="735" class="node-id" text-anchor="start">VV-CMP-017</text>
<text x="595.5" y="760" class="body" text-anchor="start">
<tspan x="595.5" dy="0">Frames MCP server</tspan>
</text>
<text x="1079.0" y="735" class="tiny" text-anchor="end">Rust</text>
<rect x="1109.0" y="714" width="511.5" height="76" rx="7" fill="#ffffff" stroke="#b8c7cd" stroke-width="1" opacity="1"/>
<rect x="1109.0" y="714" width="6" height="76" rx="6" fill="#2c8580" stroke="none" stroke-width="1" opacity="1"/>
<text x="1125.0" y="735" class="node-id" text-anchor="start">VV-CMP-018</text>
<text x="1125.0" y="760" class="body" text-anchor="start">
<tspan x="1125.0" dy="0">DuckDB MCP server</tspan>
</text>
<text x="1608.5" y="735" class="tiny" text-anchor="end">Rust</text>
<rect x="1638.5" y="714" width="511.5" height="76" rx="7" fill="#ffffff" stroke="#b8c7cd" stroke-width="1" opacity="1"/>
<rect x="1638.5" y="714" width="6" height="76" rx="6" fill="#2c8580" stroke="none" stroke-width="1" opacity="1"/>
<text x="1654.5" y="735" class="node-id" text-anchor="start">VV-CMP-019</text>
<text x="1654.5" y="760" class="body" text-anchor="start">
<tspan x="1654.5" dy="0">Media MCP server</tspan>
</text>
<text x="2138.0" y="735" class="tiny" text-anchor="end">Rust</text>
<rect x="50.0" y="806" width="511.5" height="76" rx="7" fill="#ffffff" stroke="#b8c7cd" stroke-width="1" opacity="1"/>
<rect x="50.0" y="806" width="6" height="76" rx="6" fill="#2c8580" stroke="none" stroke-width="1" opacity="1"/>
<text x="66.0" y="827" class="node-id" text-anchor="start">VV-CMP-020</text>
<text x="66.0" y="852" class="body" text-anchor="start">
<tspan x="66.0" dy="0">Map MCP server</tspan>
</text>
<text x="549.5" y="827" class="tiny" text-anchor="end">Rust</text>
<rect x="579.5" y="806" width="511.5" height="76" rx="7" fill="#ffffff" stroke="#b8c7cd" stroke-width="1" opacity="1"/>
<rect x="579.5" y="806" width="6" height="76" rx="6" fill="#2c8580" stroke="none" stroke-width="1" opacity="1"/>
<text x="595.5" y="827" class="node-id" text-anchor="start">VV-CMP-021</text>
<text x="595.5" y="852" class="body" text-anchor="start">
<tspan x="595.5" dy="0">Optimization MCP server</tspan>
</text>
<text x="1079.0" y="827" class="tiny" text-anchor="end">Rust</text>
<rect x="1109.0" y="806" width="511.5" height="76" rx="7" fill="#ffffff" stroke="#b8c7cd" stroke-width="1" opacity="1"/>
<rect x="1109.0" y="806" width="6" height="76" rx="6" fill="#2c8580" stroke="none" stroke-width="1" opacity="1"/>
<text x="1125.0" y="827" class="node-id" text-anchor="start">VV-CMP-022</text>
<text x="1125.0" y="852" class="body" text-anchor="start">
<tspan x="1125.0" dy="0">Perception MCP server</tspan>
</text>
<text x="1608.5" y="827" class="tiny" text-anchor="end">Rust</text>
<rect x="1638.5" y="806" width="511.5" height="76" rx="7" fill="#ffffff" stroke="#b8c7cd" stroke-width="1" opacity="1"/>
<rect x="1638.5" y="806" width="6" height="76" rx="6" fill="#2c8580" stroke="none" stroke-width="1" opacity="1"/>
<text x="1654.5" y="827" class="node-id" text-anchor="start">VV-CMP-023</text>
<text x="1654.5" y="852" class="body" text-anchor="start">
<tspan x="1654.5" dy="0">Recording MCP server</tspan>
</text>
<text x="2138.0" y="827" class="tiny" text-anchor="end">Rust</text>
<rect x="50.0" y="898" width="511.5" height="76" rx="7" fill="#ffffff" stroke="#b8c7cd" stroke-width="1" opacity="1"/>
<rect x="50.0" y="898" width="6" height="76" rx="6" fill="#2c8580" stroke="none" stroke-width="1" opacity="1"/>
<text x="66.0" y="919" class="node-id" text-anchor="start">VV-CMP-024</text>
<text x="66.0" y="944" class="body" text-anchor="start">
<tspan x="66.0" dy="0">Timeseries MCP server</tspan>
</text>
<text x="549.5" y="919" class="tiny" text-anchor="end">Rust</text>
<rect x="579.5" y="898" width="511.5" height="76" rx="7" fill="#ffffff" stroke="#b8c7cd" stroke-width="1" opacity="1"/>
<rect x="579.5" y="898" width="6" height="76" rx="6" fill="#2c8580" stroke="none" stroke-width="1" opacity="1"/>
<text x="595.5" y="919" class="node-id" text-anchor="start">VV-CMP-025</text>
<text x="595.5" y="944" class="body" text-anchor="start">
<tspan x="595.5" dy="0">Datasheet MCP server</tspan>
</text>
<text x="1079.0" y="919" class="tiny" text-anchor="end">Python</text>
<rect x="1109.0" y="898" width="511.5" height="76" rx="7" fill="#ffffff" stroke="#b8c7cd" stroke-width="1" opacity="1"/>
<rect x="1109.0" y="898" width="6" height="76" rx="6" fill="#2c8580" stroke="none" stroke-width="1" opacity="1"/>
<text x="1125.0" y="919" class="node-id" text-anchor="start">VV-CMP-026</text>
<text x="1125.0" y="944" class="body" text-anchor="start">
<tspan x="1125.0" dy="0">Chart MCP packaged service</tspan>
</text>
<text x="1608.5" y="919" class="tiny" text-anchor="end">Node.js and flint-chart-mcp</text>
<rect x="1638.5" y="898" width="511.5" height="76" rx="7" fill="#ffffff" stroke="#b8c7cd" stroke-width="1" opacity="1"/>
<rect x="1638.5" y="898" width="6" height="76" rx="6" fill="#2c8580" stroke="none" stroke-width="1" opacity="1"/>
<text x="1654.5" y="919" class="node-id" text-anchor="start">VV-CMP-027</text>
<text x="1654.5" y="944" class="body" text-anchor="start">
<tspan x="1654.5" dy="0">Rerun viewer MCP child</tspan>
</text>
<text x="2138.0" y="919" class="tiny" text-anchor="end">Rerun viewer MCP process</text>
<rect x="50.0" y="990" width="511.5" height="76" rx="7" fill="#ffffff" stroke="#b8c7cd" stroke-width="1" opacity="1"/>
<rect x="50.0" y="990" width="6" height="76" rx="6" fill="#2c8580" stroke="none" stroke-width="1" opacity="1"/>
<text x="66.0" y="1011" class="node-id" text-anchor="start">VV-CMP-049</text>
<text x="66.0" y="1036" class="body" text-anchor="start">
<tspan x="66.0" dy="0">Time MCP server</tspan>
</text>
<text x="549.5" y="1011" class="tiny" text-anchor="end">Rust</text>
<rect x="579.5" y="990" width="511.5" height="76" rx="7" fill="#ffffff" stroke="#b8c7cd" stroke-width="1" opacity="1"/>
<rect x="579.5" y="990" width="6" height="76" rx="6" fill="#2c8580" stroke="none" stroke-width="1" opacity="1"/>
<text x="595.5" y="1011" class="node-id" text-anchor="start">VV-CMP-050</text>
<text x="595.5" y="1036" class="body" text-anchor="start">
<tspan x="595.5" dy="0">View MCP server</tspan>
</text>
<text x="1079.0" y="1011" class="tiny" text-anchor="end">Rust</text>
<rect x="1109.0" y="990" width="511.5" height="76" rx="7" fill="#ffffff" stroke="#b8c7cd" stroke-width="1" opacity="1"/>
<rect x="1109.0" y="990" width="6" height="76" rx="6" fill="#2c8580" stroke="none" stroke-width="1" opacity="1"/>
<text x="1125.0" y="1011" class="node-id" text-anchor="start">VV-CMP-054</text>
<text x="1125.0" y="1036" class="body" text-anchor="start">
<tspan x="1125.0" dy="0">UAV Simulation MCP server</tspan>
</text>
<text x="1608.5" y="1011" class="tiny" text-anchor="end">Rust</text>
<rect x="30" y="1128" width="2140" height="168" rx="12" fill="#e7e1ef" stroke="#b9c8ce" stroke-width="1.2" opacity="1"/>
<text x="48" y="1154" class="label" text-anchor="start">Showcase and internal executors</text>
<text x="2152" y="1154" class="small" text-anchor="end">6 components</text>
<rect x="50.0" y="1176" width="335.0" height="76" rx="7" fill="#ffffff" stroke="#b8c7cd" stroke-width="1" opacity="1"/>
<rect x="50.0" y="1176" width="6" height="76" rx="6" fill="#2c8580" stroke="none" stroke-width="1" opacity="1"/>
<text x="66.0" y="1197" class="node-id" text-anchor="start">VV-CMP-028</text>
<text x="66.0" y="1222" class="body" text-anchor="start">
<tspan x="66.0" dy="0">SUMO MCP server</tspan>
</text>
<text x="373.0" y="1197" class="tiny" text-anchor="end">Rust</text>
<rect x="403.0" y="1176" width="335.0" height="76" rx="7" fill="#ffffff" stroke="#b8c7cd" stroke-width="1" opacity="1"/>
<rect x="403.0" y="1176" width="6" height="76" rx="6" fill="#2c8580" stroke="none" stroke-width="1" opacity="1"/>
<text x="419.0" y="1197" class="node-id" text-anchor="start">VV-CMP-029</text>
<text x="419.0" y="1222" class="body" text-anchor="start">
<tspan x="419.0" dy="0">SUMO simulator and LuST world</tspan>
</text>
<text x="726.0" y="1197" class="tiny" text-anchor="end">SUMO 1.27.1</text>
<rect x="756.0" y="1176" width="335.0" height="76" rx="7" fill="#ffffff" stroke="#b8c7cd" stroke-width="1" opacity="1"/>
<rect x="756.0" y="1176" width="6" height="76" rx="6" fill="#2c8580" stroke="none" stroke-width="1" opacity="1"/>
<text x="772.0" y="1197" class="node-id" text-anchor="start">VV-CMP-030</text>
<text x="772.0" y="1222" class="body" text-anchor="start">
<tspan x="772.0" dy="0">Python hosted-server SDK</tspan>
</text>
<text x="1079.0" y="1197" class="tiny" text-anchor="end">Python</text>
<rect x="1109.0" y="1176" width="335.0" height="76" rx="7" fill="#ffffff" stroke="#b8c7cd" stroke-width="1" opacity="1"/>
<rect x="1109.0" y="1176" width="6" height="76" rx="6" fill="#2c8580" stroke="none" stroke-width="1" opacity="1"/>
<text x="1125.0" y="1197" class="node-id" text-anchor="start">VV-CMP-031</text>
<text x="1125.0" y="1222" class="body" text-anchor="start">
<tspan x="1125.0" dy="0">Map data acquisition helper</tspan>
</text>
<text x="1432.0" y="1197" class="tiny" text-anchor="end">Python</text>
<rect x="1462.0" y="1176" width="335.0" height="76" rx="7" fill="#ffffff" stroke="#b8c7cd" stroke-width="1" opacity="1"/>
<rect x="1462.0" y="1176" width="6" height="76" rx="6" fill="#2c8580" stroke="none" stroke-width="1" opacity="1"/>
<text x="1478.0" y="1197" class="node-id" text-anchor="start">VV-CMP-032</text>
<text x="1478.0" y="1222" class="body" text-anchor="start">
<tspan x="1478.0" dy="0">Perception DeepStream runner</tspan>
</text>
<text x="1785.0" y="1197" class="tiny" text-anchor="end">C++</text>
<rect x="1815.0" y="1176" width="335.0" height="76" rx="7" fill="#ffffff" stroke="#b8c7cd" stroke-width="1" opacity="1"/>
<rect x="1815.0" y="1176" width="6" height="76" rx="6" fill="#2c8580" stroke="none" stroke-width="1" opacity="1"/>
<text x="1831.0" y="1197" class="node-id" text-anchor="start">VV-CMP-055</text>
<text x="1831.0" y="1222" class="body" text-anchor="start">
<tspan x="1831.0" dy="0">UAV simulation runtime and adapter</tspan>
</text>
<text x="2138.0" y="1197" class="tiny" text-anchor="end">Python</text>
<rect x="30" y="1314" width="2140" height="168" rx="12" fill="#e9e7db" stroke="#b9c8ce" stroke-width="1.2" opacity="1"/>
<text x="48" y="1340" class="label" text-anchor="start">Verification and deployment</text>
<text x="2152" y="1340" class="small" text-anchor="end">5 components</text>
<rect x="50.0" y="1362" width="405.6" height="76" rx="7" fill="#ffffff" stroke="#b8c7cd" stroke-width="1" opacity="1"/>
<rect x="50.0" y="1362" width="6" height="76" rx="6" fill="#2c8580" stroke="none" stroke-width="1" opacity="1"/>
<text x="66.0" y="1383" class="node-id" text-anchor="start">VV-CMP-033</text>
<text x="66.0" y="1408" class="body" text-anchor="start">
<tspan x="66.0" dy="0">MCP conformance client</tspan>
</text>
<text x="443.6" y="1383" class="tiny" text-anchor="end">Rust</text>
<rect x="473.6" y="1362" width="405.6" height="76" rx="7" fill="#ffffff" stroke="#b8c7cd" stroke-width="1" opacity="1"/>
<rect x="473.6" y="1362" width="6" height="76" rx="6" fill="#2c8580" stroke="none" stroke-width="1" opacity="1"/>
<text x="489.6" y="1383" class="node-id" text-anchor="start">VV-CMP-034</text>
<text x="489.6" y="1408" class="body" text-anchor="start">
<tspan x="489.6" dy="0">Rust smoke harness</tspan>
</text>
<text x="867.2" y="1383" class="tiny" text-anchor="end">Rust</text>
<rect x="897.2" y="1362" width="405.6" height="76" rx="7" fill="#ffffff" stroke="#b8c7cd" stroke-width="1" opacity="1"/>
<rect x="897.2" y="1362" width="6" height="76" rx="6" fill="#2c8580" stroke="none" stroke-width="1" opacity="1"/>
<text x="913.2" y="1383" class="node-id" text-anchor="start">VV-CMP-035</text>
<text x="913.2" y="1408" class="body" text-anchor="start">
<tspan x="913.2" dy="0">k3d local development environment</tspan>
</text>
<text x="1290.8000000000002" y="1383" class="tiny" text-anchor="end">k3d and Kubernetes YAML</text>
<rect x="1320.8000000000002" y="1362" width="405.6" height="76" rx="7" fill="#ffffff" stroke="#b8c7cd" stroke-width="1" opacity="1"/>
<rect x="1320.8000000000002" y="1362" width="6" height="76" rx="6" fill="#2c8580" stroke="none" stroke-width="1" opacity="1"/>
<text x="1336.8000000000002" y="1383" class="node-id" text-anchor="start">VV-CMP-036</text>
<text x="1336.8000000000002" y="1408" class="body" text-anchor="start">
<tspan x="1336.8000000000002" dy="0">Helm deployment chart</tspan>
</text>
<text x="1714.4" y="1383" class="tiny" text-anchor="end">Helm and Kubernetes YAML</text>
<rect x="1744.4" y="1362" width="405.6" height="76" rx="7" fill="#ffffff" stroke="#b8c7cd" stroke-width="1" opacity="1"/>
<rect x="1744.4" y="1362" width="6" height="76" rx="6" fill="#2c8580" stroke="none" stroke-width="1" opacity="1"/>
<text x="1760.4" y="1383" class="node-id" text-anchor="start">VV-CMP-037</text>
<text x="1760.4" y="1408" class="body" text-anchor="start">
<tspan x="1760.4" dy="0">Offline bundle builder and loader</tspan>
</text>
<text x="2138.0" y="1383" class="tiny" text-anchor="end">Shell dispatch plus verified manifests</text>
<rect x="30" y="1500" width="2140" height="352" rx="12" fill="#f0dfdc" stroke="#b9c8ce" stroke-width="1.2" opacity="1"/>
<text x="48" y="1526" class="label" text-anchor="start">External platform and execution resources</text>
<text x="2152" y="1526" class="small" text-anchor="end">12 components</text>
<rect x="50.0" y="1548" width="511.5" height="76" rx="7" fill="#ffffff" stroke="#b8c7cd" stroke-width="1" opacity="1"/>
<rect x="50.0" y="1548" width="6" height="76" rx="6" fill="#2c8580" stroke="none" stroke-width="1" opacity="1"/>
<text x="66.0" y="1569" class="node-id" text-anchor="start">VV-CMP-038</text>
<text x="66.0" y="1594" class="body" text-anchor="start">
<tspan x="66.0" dy="0">SurrealDB platform database</tspan>
</text>
<text x="549.5" y="1569" class="tiny" text-anchor="end">SurrealDB 3.2.1</text>
<rect x="579.5" y="1548" width="511.5" height="76" rx="7" fill="#ffffff" stroke="#b8c7cd" stroke-width="1" opacity="1"/>
<rect x="579.5" y="1548" width="6" height="76" rx="6" fill="#2c8580" stroke="none" stroke-width="1" opacity="1"/>
<text x="595.5" y="1569" class="node-id" text-anchor="start">VV-CMP-039</text>
<text x="595.5" y="1594" class="body" text-anchor="start">
<tspan x="595.5" dy="0">S3-compatible object store</tspan>
</text>
<text x="1079.0" y="1569" class="tiny" text-anchor="end">RustFS or installation-owned S3-compatible service</text>
<rect x="1109.0" y="1548" width="511.5" height="76" rx="7" fill="#ffffff" stroke="#b8c7cd" stroke-width="1" opacity="1"/>
<rect x="1109.0" y="1548" width="6" height="76" rx="6" fill="#2c8580" stroke="none" stroke-width="1" opacity="1"/>
<text x="1125.0" y="1569" class="node-id" text-anchor="start">VV-CMP-040</text>
<text x="1125.0" y="1594" class="body" text-anchor="start">
<tspan x="1125.0" dy="0">Installation edge and ingress</tspan>
</text>
<text x="1608.5" y="1569" class="tiny" text-anchor="end">Kubernetes ingress controller</text>
<rect x="1638.5" y="1548" width="511.5" height="76" rx="7" fill="#ffffff" stroke="#b8c7cd" stroke-width="1" opacity="1"/>
<rect x="1638.5" y="1548" width="6" height="76" rx="6" fill="#2c8580" stroke="none" stroke-width="1" opacity="1"/>
<text x="1654.5" y="1569" class="node-id" text-anchor="start">VV-CMP-041</text>
<text x="1654.5" y="1594" class="body" text-anchor="start">
<tspan x="1654.5" dy="0">Enterprise identity provider</tspan>
</text>
<text x="2138.0" y="1569" class="tiny" text-anchor="end">OIDC provider</text>
<rect x="50.0" y="1640" width="511.5" height="76" rx="7" fill="#ffffff" stroke="#b8c7cd" stroke-width="1" opacity="1"/>
<rect x="50.0" y="1640" width="6" height="76" rx="6" fill="#2c8580" stroke="none" stroke-width="1" opacity="1"/>
<text x="66.0" y="1661" class="node-id" text-anchor="start">VV-CMP-042</text>
<text x="66.0" y="1686" class="body" text-anchor="start">
<tspan x="66.0" dy="0">OpenTelemetry collector and SIEM export</tspan>
</text>
<text x="549.5" y="1661" class="tiny" text-anchor="end">OpenTelemetry Collector 0.156.0 and optional SIEM</text>
<rect x="579.5" y="1640" width="511.5" height="76" rx="7" fill="#ffffff" stroke="#b8c7cd" stroke-width="1" opacity="1"/>
<rect x="579.5" y="1640" width="6" height="76" rx="6" fill="#2c8580" stroke="none" stroke-width="1" opacity="1"/>
<text x="595.5" y="1661" class="node-id" text-anchor="start">VV-CMP-043</text>
<text x="595.5" y="1686" class="body" text-anchor="start">
<tspan x="595.5" dy="0">Media generation provider</tspan>
</text>
<text x="1079.0" y="1661" class="tiny" text-anchor="end">provider-neutral HTTPS API</text>
<rect x="1109.0" y="1640" width="511.5" height="76" rx="7" fill="#ffffff" stroke="#b8c7cd" stroke-width="1" opacity="1"/>
<rect x="1109.0" y="1640" width="6" height="76" rx="6" fill="#2c8580" stroke="none" stroke-width="1" opacity="1"/>
<text x="1125.0" y="1661" class="node-id" text-anchor="start">VV-CMP-044</text>
<text x="1125.0" y="1686" class="body" text-anchor="start">
<tspan x="1125.0" dy="0">NVIDIA DeepStream and TensorRT runtime</tspan>
</text>
<text x="1608.5" y="1661" class="tiny" text-anchor="end">DeepStream 9 and TensorRT</text>
<rect x="1638.5" y="1640" width="511.5" height="76" rx="7" fill="#ffffff" stroke="#b8c7cd" stroke-width="1" opacity="1"/>
<rect x="1638.5" y="1640" width="6" height="76" rx="6" fill="#2c8580" stroke="none" stroke-width="1" opacity="1"/>
<text x="1654.5" y="1661" class="node-id" text-anchor="start">VV-CMP-045</text>
<text x="1654.5" y="1686" class="body" text-anchor="start">
<tspan x="1654.5" dy="0">DuckDB and Spatial runtime</tspan>
</text>
<text x="2138.0" y="1661" class="tiny" text-anchor="end">DuckDB 1.5.4 and pinned Spatial extension</text>
<rect x="50.0" y="1732" width="511.5" height="76" rx="7" fill="#ffffff" stroke="#b8c7cd" stroke-width="1" opacity="1"/>
<rect x="50.0" y="1732" width="6" height="76" rx="6" fill="#2c8580" stroke="none" stroke-width="1" opacity="1"/>
<text x="66.0" y="1753" class="node-id" text-anchor="start">VV-CMP-046</text>
<text x="66.0" y="1778" class="body" text-anchor="start">
<tspan x="66.0" dy="0">Map processing and routing toolchain</tspan>
</text>
<text x="549.5" y="1753" class="tiny" text-anchor="end">Valhalla 3.8.2 GDAL 3.11.4 and GTFS Validator 8.0.1</text>
<rect x="579.5" y="1732" width="511.5" height="76" rx="7" fill="#ffffff" stroke="#b8c7cd" stroke-width="1" opacity="1"/>
<rect x="579.5" y="1732" width="6" height="76" rx="6" fill="#2c8580" stroke="none" stroke-width="1" opacity="1"/>
<text x="595.5" y="1753" class="node-id" text-anchor="start">VV-CMP-047</text>
<text x="595.5" y="1778" class="body" text-anchor="start">
<tspan x="595.5" dy="0">Rerun data model and transport</tspan>
</text>
<text x="1079.0" y="1753" class="tiny" text-anchor="end">Rerun 0.34.x libraries and proxy protocol</text>
<rect x="1109.0" y="1732" width="511.5" height="76" rx="7" fill="#ffffff" stroke="#b8c7cd" stroke-width="1" opacity="1"/>
<rect x="1109.0" y="1732" width="6" height="76" rx="6" fill="#2c8580" stroke="none" stroke-width="1" opacity="1"/>
<text x="1125.0" y="1753" class="node-id" text-anchor="start">VV-CMP-048</text>
<text x="1125.0" y="1778" class="body" text-anchor="start">
<tspan x="1125.0" dy="0">Container execution environment</tspan>
</text>
<text x="1608.5" y="1753" class="tiny" text-anchor="end">Kubernetes with an OCI container runtime</text>
<rect x="1638.5" y="1732" width="511.5" height="76" rx="7" fill="#ffffff" stroke="#b8c7cd" stroke-width="1" opacity="1"/>
<rect x="1638.5" y="1732" width="6" height="76" rx="6" fill="#2c8580" stroke="none" stroke-width="1" opacity="1"/>
<text x="1654.5" y="1753" class="node-id" text-anchor="start">VV-CMP-056</text>
<text x="1654.5" y="1778" class="body" text-anchor="start">
<tspan x="1654.5" dy="0">UAV simulation execution stack</tspan>
</text>
<text x="2138.0" y="1753" class="tiny" text-anchor="end">Isaac Sim 6.0.1, Cesium for Omniverse 0.29.0, Pegasus 5.1.0, PX4 1.17.0</text>
<rect x="28" y="1865" width="2144" height="1.2" rx="0" fill="#687983" stroke="none" stroke-width="1" opacity="1"/>
<text x="30" y="1886" class="tiny" text-anchor="start">Veoveo reference baseline - no client-specific data</text>
<text x="2170" y="1886" class="tiny" text-anchor="end">Revision 2026-07-17 | VV-VIEW-05</text>
</svg>
