<svg xmlns="http://www.w3.org/2000/svg" viewBox="0 0 1900 1220" width="1900" height="1220" role="img" aria-labelledby="title desc">
<title id="title">Software resource connectivity</title>
<desc id="desc">Canonical runtime connections, trust transitions, and authoritative stores.</desc>
<defs>
<marker id="arrow" viewBox="0 0 10 10" refX="9" refY="5" markerWidth="7" markerHeight="7" orient="auto-start-reverse"><path d="M 0 0 L 10 5 L 0 10 z" fill="#21465b"/></marker>
<marker id="arrow-muted" viewBox="0 0 10 10" refX="9" refY="5" markerWidth="7" markerHeight="7" orient="auto-start-reverse"><path d="M 0 0 L 10 5 L 0 10 z" fill="#687983"/></marker>
<filter id="shadow" x="-10%" y="-10%" width="120%" height="130%"><feDropShadow dx="0" dy="2" stdDeviation="3" flood-color="#0b2534" flood-opacity="0.12"/></filter>
</defs>
<style>
.title{font:700 30px Arial,Helvetica,sans-serif;fill:#102f40}.subtitle{font:400 15px Arial,Helvetica,sans-serif;fill:#4d626d}.label{font:700 14px Arial,Helvetica,sans-serif;fill:#102f40;letter-spacing:.04em}.node-title{font:700 17px Arial,Helvetica,sans-serif;fill:#102f40}.node-id{font:700 12px Arial,Helvetica,sans-serif;fill:#176b68;letter-spacing:.04em}.body{font:400 14px Arial,Helvetica,sans-serif;fill:#2d4653}.small{font:400 12px Arial,Helvetica,sans-serif;fill:#526a76}.tiny{font:400 10px Arial,Helvetica,sans-serif;fill:#526a76}.inverse{fill:#ffffff}.edge{stroke:#21465b;stroke-width:2.2;fill:none;marker-end:url(#arrow)}.edge-muted{stroke:#687983;stroke-width:1.6;fill:none;marker-end:url(#arrow-muted)}.edge-dash{stroke:#687983;stroke-width:1.5;stroke-dasharray:7 6;fill:none;marker-end:url(#arrow-muted)}
</style>
<rect x="0" y="0" width="1900" height="1220" rx="0" fill="#f5f2eb" stroke="none" stroke-width="1" opacity="1"/>
<rect x="0" y="0" width="1900" height="82" rx="0" fill="#102f40" stroke="none" stroke-width="1" opacity="1"/>
<text x="36" y="43" class="title inverse" text-anchor="start">Software resource connectivity</text>
<text x="1864" y="32" class="label inverse" text-anchor="end">VV-VIEW-06</text>
<text x="1864" y="57" class="small inverse" text-anchor="end">UAF 1.3 / SysML 1.6 | v0.1.0</text>
<rect x="30" y="120" width="260" height="1020" rx="12" fill="#f0dfdc" stroke="#b9c8ce" stroke-width="1.2" opacity="1"/>
<text x="48" y="146" class="label" text-anchor="start">External zone</text>
<text x="272" y="146" class="small" text-anchor="end">Untrusted / enterprise</text>
<rect x="52" y="175" width="216" height="108" rx="9" fill="#ffffff" stroke="#b8c7cd" stroke-width="1" opacity="1" filter="url(#shadow)"/>
<rect x="52" y="175" width="7" height="108" rx="7" fill="#2c8580" stroke="none" stroke-width="1" opacity="1"/>
<text x="70" y="198" class="node-id" text-anchor="start">EXT-1</text>
<text x="70" y="222" class="node-title" text-anchor="start">
<tspan x="70" dy="0">Browser / operator</tspan>
</text>
<rect x="52" y="320" width="216" height="108" rx="9" fill="#ffffff" stroke="#b8c7cd" stroke-width="1" opacity="1" filter="url(#shadow)"/>
<rect x="52" y="320" width="7" height="108" rx="7" fill="#2c8580" stroke="none" stroke-width="1" opacity="1"/>
<text x="70" y="343" class="node-id" text-anchor="start">EXT-2</text>
<text x="70" y="367" class="node-title" text-anchor="start">
<tspan x="70" dy="0">MCP / OAuth client</tspan>
</text>
<rect x="52" y="465" width="216" height="108" rx="9" fill="#ffffff" stroke="#b8c7cd" stroke-width="1" opacity="1" filter="url(#shadow)"/>
<rect x="52" y="465" width="7" height="108" rx="7" fill="#2c8580" stroke="none" stroke-width="1" opacity="1"/>
<text x="70" y="488" class="node-id" text-anchor="start">VV-CMP-041</text>
<text x="70" y="512" class="node-title" text-anchor="start">
<tspan x="70" dy="0">Enterprise IdP</tspan>
</text>
<rect x="52" y="610" width="216" height="108" rx="9" fill="#ffffff" stroke="#b8c7cd" stroke-width="1" opacity="1" filter="url(#shadow)"/>
<rect x="52" y="610" width="7" height="108" rx="7" fill="#2c8580" stroke="none" stroke-width="1" opacity="1"/>
<text x="70" y="633" class="node-id" text-anchor="start">VV-CMP-043</text>
<text x="70" y="657" class="node-title" text-anchor="start">
<tspan x="70" dy="0">Media provider</tspan>
</text>
<rect x="52" y="755" width="216" height="108" rx="9" fill="#ffffff" stroke="#b8c7cd" stroke-width="1" opacity="1" filter="url(#shadow)"/>
<rect x="52" y="755" width="7" height="108" rx="7" fill="#2c8580" stroke="none" stroke-width="1" opacity="1"/>
<text x="70" y="778" class="node-id" text-anchor="start">EXT-5</text>
<text x="70" y="802" class="node-title" text-anchor="start">
<tspan x="70" dy="0">Sensor / simulator</tspan>
</text>
<rect x="52" y="900" width="216" height="108" rx="9" fill="#ffffff" stroke="#b8c7cd" stroke-width="1" opacity="1" filter="url(#shadow)"/>
<rect x="52" y="900" width="7" height="108" rx="7" fill="#2c8580" stroke="none" stroke-width="1" opacity="1"/>
<text x="70" y="923" class="node-id" text-anchor="start">EXT-6</text>
<text x="70" y="947" class="node-title" text-anchor="start">
<tspan x="70" dy="0">SIEM / telemetry</tspan>
</text>
<rect x="330" y="120" width="310" height="1020" rx="12" fill="#e9e7db" stroke="#b9c8ce" stroke-width="1.2" opacity="1"/>
<text x="348" y="146" class="label" text-anchor="start">Ingress zone</text>
<text x="622" y="146" class="small" text-anchor="end">Published HTTPS</text>
<rect x="360" y="190" width="250" height="120" rx="9" fill="#ffffff" stroke="#b8c7cd" stroke-width="1" opacity="1" filter="url(#shadow)"/>
<rect x="360" y="190" width="7" height="120" rx="7" fill="#2c8580" stroke="none" stroke-width="1" opacity="1"/>
<text x="378" y="213" class="node-id" text-anchor="start">VV-CMP-040</text>
<text x="378" y="237" class="node-title" text-anchor="start">
<tspan x="378" dy="0">Edge / ingress</tspan>
</text>
<text x="378" y="260" class="small" text-anchor="start">
<tspan x="378" dy="0">TLS and published route</tspan>
<tspan x="378" dy="16">boundary.</tspan>
</text>
<rect x="360" y="390" width="250" height="150" rx="9" fill="#ffffff" stroke="#b8c7cd" stroke-width="1" opacity="1" filter="url(#shadow)"/>
<rect x="360" y="390" width="7" height="150" rx="7" fill="#2c8580" stroke="none" stroke-width="1" opacity="1"/>
<text x="378" y="413" class="node-id" text-anchor="start">VV-CMP-002/003</text>
<text x="378" y="437" class="node-title" text-anchor="start">
<tspan x="378" dy="0">Console BFF + web</tspan>
</text>
<text x="378" y="460" class="small" text-anchor="start">
<tspan x="378" dy="0">Browser login, sessions, CSRF,</tspan>
<tspan x="378" dy="16">safe projections.</tspan>
</text>
<rect x="360" y="650" width="250" height="165" rx="9" fill="#d9ebe7" stroke="#b8c7cd" stroke-width="1" opacity="1" filter="url(#shadow)"/>
<rect x="360" y="650" width="7" height="165" rx="7" fill="#2c8580" stroke="none" stroke-width="1" opacity="1"/>
<text x="378" y="673" class="node-id" text-anchor="start">VV-CMP-001</text>
<text x="378" y="697" class="node-title" text-anchor="start">
<tspan x="378" dy="0">MCP gateway</tspan>
</text>
<text x="378" y="720" class="small" text-anchor="start">
<tspan x="378" dy="0">OAuth, policy, audit,</tspan>
<tspan x="378" dy="16">aggregation, internal</tspan>
<tspan x="378" dy="16">identity.</tspan>
</text>
<rect x="360" y="930" width="250" height="120" rx="9" fill="#ffffff" stroke="#b8c7cd" stroke-width="1" opacity="1" filter="url(#shadow)"/>
<rect x="360" y="930" width="7" height="120" rx="7" fill="#2c8580" stroke="none" stroke-width="1" opacity="1"/>
<text x="378" y="953" class="node-id" text-anchor="start">VV-CMP-004</text>
<text x="378" y="977" class="node-title" text-anchor="start">
<tspan x="378" dy="0">Public share redemption</tspan>
</text>
<text x="378" y="1000" class="small" text-anchor="start">
<tspan x="378" dy="0">Hash-only bearer resolution.</tspan>
</text>
<rect x="680" y="120" width="570" height="1020" rx="12" fill="#deebf2" stroke="#b9c8ce" stroke-width="1.2" opacity="1"/>
<text x="698" y="146" class="label" text-anchor="start">Application zone</text>
<text x="1232" y="146" class="small" text-anchor="end">Gateway-authenticated</text>
<rect x="705" y="175" width="160" height="108" rx="9" fill="#ffffff" stroke="#b8c7cd" stroke-width="1" opacity="1" filter="url(#shadow)"/>
<rect x="705" y="175" width="7" height="108" rx="7" fill="#2c8580" stroke="none" stroke-width="1" opacity="1"/>
<text x="723" y="198" class="node-id" text-anchor="start">VV-CMP-016</text>
<text x="723" y="222" class="node-title" text-anchor="start">
<tspan x="723" dy="0">Artifact</tspan>
</text>
<rect x="885" y="175" width="160" height="108" rx="9" fill="#ffffff" stroke="#b8c7cd" stroke-width="1" opacity="1" filter="url(#shadow)"/>
<rect x="885" y="175" width="7" height="108" rx="7" fill="#2c8580" stroke="none" stroke-width="1" opacity="1"/>
<text x="903" y="198" class="node-id" text-anchor="start">VV-CMP-017</text>
<text x="903" y="222" class="node-title" text-anchor="start">
<tspan x="903" dy="0">Frames</tspan>
</text>
<rect x="1065" y="175" width="160" height="108" rx="9" fill="#ffffff" stroke="#b8c7cd" stroke-width="1" opacity="1" filter="url(#shadow)"/>
<rect x="1065" y="175" width="7" height="108" rx="7" fill="#2c8580" stroke="none" stroke-width="1" opacity="1"/>
<text x="1083" y="198" class="node-id" text-anchor="start">VV-CMP-018</text>
<text x="1083" y="222" class="node-title" text-anchor="start">
<tspan x="1083" dy="0">DuckDB</tspan>
</text>
<rect x="705" y="320" width="160" height="108" rx="9" fill="#ffffff" stroke="#b8c7cd" stroke-width="1" opacity="1" filter="url(#shadow)"/>
<rect x="705" y="320" width="7" height="108" rx="7" fill="#2c8580" stroke="none" stroke-width="1" opacity="1"/>
<text x="723" y="343" class="node-id" text-anchor="start">VV-CMP-019</text>
<text x="723" y="367" class="node-title" text-anchor="start">
<tspan x="723" dy="0">Media</tspan>
</text>
<rect x="885" y="320" width="160" height="108" rx="9" fill="#ffffff" stroke="#b8c7cd" stroke-width="1" opacity="1" filter="url(#shadow)"/>
<rect x="885" y="320" width="7" height="108" rx="7" fill="#2c8580" stroke="none" stroke-width="1" opacity="1"/>
<text x="903" y="343" class="node-id" text-anchor="start">VV-CMP-020</text>
<text x="903" y="367" class="node-title" text-anchor="start">
<tspan x="903" dy="0">Map</tspan>
</text>
<rect x="1065" y="320" width="160" height="108" rx="9" fill="#ffffff" stroke="#b8c7cd" stroke-width="1" opacity="1" filter="url(#shadow)"/>
<rect x="1065" y="320" width="7" height="108" rx="7" fill="#2c8580" stroke="none" stroke-width="1" opacity="1"/>
<text x="1083" y="343" class="node-id" text-anchor="start">VV-CMP-021</text>
<text x="1083" y="367" class="node-title" text-anchor="start">
<tspan x="1083" dy="0">Optimization</tspan>
</text>
<rect x="705" y="465" width="160" height="108" rx="9" fill="#ffffff" stroke="#b8c7cd" stroke-width="1" opacity="1" filter="url(#shadow)"/>
<rect x="705" y="465" width="7" height="108" rx="7" fill="#2c8580" stroke="none" stroke-width="1" opacity="1"/>
<text x="723" y="488" class="node-id" text-anchor="start">VV-CMP-022</text>
<text x="723" y="512" class="node-title" text-anchor="start">
<tspan x="723" dy="0">Perception</tspan>
</text>
<rect x="885" y="465" width="160" height="108" rx="9" fill="#ffffff" stroke="#b8c7cd" stroke-width="1" opacity="1" filter="url(#shadow)"/>
<rect x="885" y="465" width="7" height="108" rx="7" fill="#2c8580" stroke="none" stroke-width="1" opacity="1"/>
<text x="903" y="488" class="node-id" text-anchor="start">VV-CMP-023</text>
<text x="903" y="512" class="node-title" text-anchor="start">
<tspan x="903" dy="0">Recording</tspan>
</text>
<rect x="1065" y="465" width="160" height="108" rx="9" fill="#ffffff" stroke="#b8c7cd" stroke-width="1" opacity="1" filter="url(#shadow)"/>
<rect x="1065" y="465" width="7" height="108" rx="7" fill="#2c8580" stroke="none" stroke-width="1" opacity="1"/>
<text x="1083" y="488" class="node-id" text-anchor="start">VV-CMP-024</text>
<text x="1083" y="512" class="node-title" text-anchor="start">
<tspan x="1083" dy="0">Timeseries</tspan>
</text>
<rect x="705" y="610" width="160" height="108" rx="9" fill="#ffffff" stroke="#b8c7cd" stroke-width="1" opacity="1" filter="url(#shadow)"/>
<rect x="705" y="610" width="7" height="108" rx="7" fill="#2c8580" stroke="none" stroke-width="1" opacity="1"/>
<text x="723" y="633" class="node-id" text-anchor="start">VV-CMP-025</text>
<text x="723" y="657" class="node-title" text-anchor="start">
<tspan x="723" dy="0">Datasheet</tspan>
</text>
<rect x="885" y="610" width="160" height="108" rx="9" fill="#ffffff" stroke="#b8c7cd" stroke-width="1" opacity="1" filter="url(#shadow)"/>
<rect x="885" y="610" width="7" height="108" rx="7" fill="#2c8580" stroke="none" stroke-width="1" opacity="1"/>
<text x="903" y="633" class="node-id" text-anchor="start">VV-CMP-026</text>
<text x="903" y="657" class="node-title" text-anchor="start">
<tspan x="903" dy="0">Charts</tspan>
</text>
<rect x="1065" y="610" width="160" height="108" rx="9" fill="#ffffff" stroke="#b8c7cd" stroke-width="1" opacity="1" filter="url(#shadow)"/>
<rect x="1065" y="610" width="7" height="108" rx="7" fill="#2c8580" stroke="none" stroke-width="1" opacity="1"/>
<text x="1083" y="633" class="node-id" text-anchor="start">VV-CMP-013/027</text>
<text x="1083" y="657" class="node-title" text-anchor="start">
<tspan x="1083" dy="0">Rerun bridge</tspan>
</text>
<rect x="705" y="790" width="250" height="135" rx="9" fill="#eee5d8" stroke="#b8c7cd" stroke-width="1" opacity="1" filter="url(#shadow)"/>
<rect x="705" y="790" width="7" height="135" rx="7" fill="#2c8580" stroke="none" stroke-width="1" opacity="1"/>
<text x="723" y="813" class="node-id" text-anchor="start">VV-CMP-004</text>
<text x="723" y="837" class="node-title" text-anchor="start">
<tspan x="723" dy="0">Artifact service</tspan>
</text>
<text x="723" y="860" class="small" text-anchor="start">
<tspan x="723" dy="0">Byte policy enforcement and</tspan>
<tspan x="723" dy="16">capability redemption.</tspan>
</text>
<rect x="975" y="790" width="250" height="135" rx="9" fill="#eee5d8" stroke="#b8c7cd" stroke-width="1" opacity="1" filter="url(#shadow)"/>
<rect x="975" y="790" width="7" height="135" rx="7" fill="#2c8580" stroke="none" stroke-width="1" opacity="1"/>
<text x="993" y="813" class="node-id" text-anchor="start">VV-CMP-005</text>
<text x="993" y="837" class="node-title" text-anchor="start">
<tspan x="993" dy="0">Recording Hub</tspan>
</text>
<text x="993" y="860" class="small" text-anchor="start">
<tspan x="993" dy="0">Private Rerun ingest and RRD</tspan>
<tspan x="993" dy="16">spool.</tspan>
</text>
<rect x="705" y="965" width="520" height="120" rx="9" fill="#ffffff" stroke="#b8c7cd" stroke-width="1" opacity="1" filter="url(#shadow)"/>
<rect x="705" y="965" width="7" height="120" rx="7" fill="#2c8580" stroke="none" stroke-width="1" opacity="1"/>
<text x="723" y="988" class="node-id" text-anchor="start">VV-CMP-006/007</text>
<text x="723" y="1012" class="node-title" text-anchor="start">
<tspan x="723" dy="0">Agent kernel and durable runtime</tspan>
</text>
<text x="723" y="1035" class="small" text-anchor="start">
<tspan x="723" dy="0">Profile-scoped MCP client with restart-safe scheduling and</tspan>
<tspan x="723" dy="16">evidence.</tspan>
</text>
<rect x="1290" y="120" width="580" height="1020" rx="12" fill="#e7e1ef" stroke="#b9c8ce" stroke-width="1.2" opacity="1"/>
<text x="1308" y="146" class="label" text-anchor="start">Data and execution zone</text>
<text x="1852" y="146" class="small" text-anchor="end">Private authorities</text>
<rect x="1318" y="175" width="245" height="165" rx="9" fill="#ffffff" stroke="#b8c7cd" stroke-width="1" opacity="1" filter="url(#shadow)"/>
<rect x="1318" y="175" width="7" height="165" rx="7" fill="#2c8580" stroke="none" stroke-width="1" opacity="1"/>
<text x="1336" y="198" class="node-id" text-anchor="start">VV-CMP-038</text>
<text x="1336" y="222" class="node-title" text-anchor="start">
<tspan x="1336" dy="0">SurrealDB 3.2</tspan>
</text>
<text x="1336" y="245" class="small" text-anchor="start">
<tspan x="1336" dy="0">Platform coordination</tspan>
<tspan x="1336" dy="16">authority</tspan>
</text>
<rect x="1585" y="175" width="245" height="165" rx="9" fill="#ffffff" stroke="#b8c7cd" stroke-width="1" opacity="1" filter="url(#shadow)"/>
<rect x="1585" y="175" width="7" height="165" rx="7" fill="#2c8580" stroke="none" stroke-width="1" opacity="1"/>
<text x="1603" y="198" class="node-id" text-anchor="start">VV-CMP-039</text>
<text x="1603" y="222" class="node-title" text-anchor="start">
<tspan x="1603" dy="0">S3 / RustFS</tspan>
</text>
<text x="1603" y="245" class="small" text-anchor="start">
<tspan x="1603" dy="0">Artifact bytes</tspan>
</text>
<rect x="1318" y="395" width="245" height="165" rx="9" fill="#ffffff" stroke="#b8c7cd" stroke-width="1" opacity="1" filter="url(#shadow)"/>
<rect x="1318" y="395" width="7" height="165" rx="7" fill="#2c8580" stroke="none" stroke-width="1" opacity="1"/>
<text x="1336" y="418" class="node-id" text-anchor="start">VV-CMP-047</text>
<text x="1336" y="442" class="node-title" text-anchor="start">
<tspan x="1336" dy="0">RRD volumes</tspan>
</text>
<text x="1336" y="465" class="small" text-anchor="start">
<tspan x="1336" dy="0">World and episode evidence</tspan>
</text>
<rect x="1585" y="395" width="245" height="165" rx="9" fill="#ffffff" stroke="#b8c7cd" stroke-width="1" opacity="1" filter="url(#shadow)"/>
<rect x="1585" y="395" width="7" height="165" rx="7" fill="#2c8580" stroke="none" stroke-width="1" opacity="1"/>
<text x="1603" y="418" class="node-id" text-anchor="start">VV-CMP-045</text>
<text x="1603" y="442" class="node-title" text-anchor="start">
<tspan x="1603" dy="0">DuckDB + Spatial</tspan>
</text>
<text x="1603" y="465" class="small" text-anchor="start">
<tspan x="1603" dy="0">Owner analytical workspaces</tspan>
</text>
<rect x="1318" y="615" width="245" height="165" rx="9" fill="#ffffff" stroke="#b8c7cd" stroke-width="1" opacity="1" filter="url(#shadow)"/>
<rect x="1318" y="615" width="7" height="165" rx="7" fill="#2c8580" stroke="none" stroke-width="1" opacity="1"/>
<text x="1336" y="638" class="node-id" text-anchor="start">VV-CMP-046</text>
<text x="1336" y="662" class="node-title" text-anchor="start">
<tspan x="1336" dy="0">Map toolchain</tspan>
</text>
<text x="1336" y="685" class="small" text-anchor="start">
<tspan x="1336" dy="0">Routing and acquisition</tspan>
</text>
<rect x="1585" y="615" width="245" height="165" rx="9" fill="#ffffff" stroke="#b8c7cd" stroke-width="1" opacity="1" filter="url(#shadow)"/>
<rect x="1585" y="615" width="7" height="165" rx="7" fill="#2c8580" stroke="none" stroke-width="1" opacity="1"/>
<text x="1603" y="638" class="node-id" text-anchor="start">VV-CMP-044</text>
<text x="1603" y="662" class="node-title" text-anchor="start">
<tspan x="1603" dy="0">DeepStream / TensorRT</tspan>
</text>
<text x="1603" y="685" class="small" text-anchor="start">
<tspan x="1603" dy="0">Local GPU inference</tspan>
</text>
<rect x="1318" y="835" width="245" height="165" rx="9" fill="#ffffff" stroke="#b8c7cd" stroke-width="1" opacity="1" filter="url(#shadow)"/>
<rect x="1318" y="835" width="7" height="165" rx="7" fill="#2c8580" stroke="none" stroke-width="1" opacity="1"/>
<text x="1336" y="858" class="node-id" text-anchor="start">VV-CMP-042</text>
<text x="1336" y="882" class="node-title" text-anchor="start">
<tspan x="1336" dy="0">OTel collector</tspan>
</text>
<text x="1336" y="905" class="small" text-anchor="start">
<tspan x="1336" dy="0">Approved operational signals</tspan>
</text>
<path d="M 268 230 L 360 450" class="edge"/>
<path d="M 268 375 L 360 730" class="edge"/>
<path d="M 268 520 L 360 730" class="edge"/>
<path d="M 268 665 L 705 392" class="edge"/>
<path d="M 268 810 L 975 855" class="edge-muted"/>
<path d="M 268 955 L 1590 945" class="edge-muted"/>
<path d="M 485 310 L 485 390" class="edge"/>
<path d="M 485 540 L 485 650" class="edge"/>
<path d="M 610 730 L 705 500" class="edge"/>
<path d="M 955 855 L 1318 257" class="edge"/>
<path d="M 955 855 L 1585 257" class="edge"/>
<path d="M 1098 855 L 1318 477" class="edge"/>
<path d="M 1225 500 L 1318 697" class="edge-muted"/>
<path d="M 1225 645 L 1585 697" class="edge-muted"/>
<path d="M 1130 500 L 1585 477" class="edge-muted"/>
<rect x="28" y="1185" width="1844" height="1.2" rx="0" fill="#687983" stroke="none" stroke-width="1" opacity="1"/>
<text x="30" y="1206" class="tiny" text-anchor="start">Veoveo reference baseline - no client-specific data</text>
<text x="1870" y="1206" class="tiny" text-anchor="end">Revision 2026-07-14 | VV-VIEW-06</text>
</svg>
